<?xml version="1.0" encoding="UTF-8"?><svg id="Layer_1" xmlns="http://www.w3.org/2000/svg" width="192.7218" height="65.0993" viewBox="0 0 192.7218 65.0993"><defs><style>.cls-1{fill:#0c2444;}.cls-1,.cls-2{stroke-width:0px;}.cls-2{fill:#fede00;}</style></defs><path class="cls-2" d="m26.1538,37.6475l-4.5961-4.0455c-.2793-.2461-.7201-.0749-.7607.2952l-1.6167,9.9311c-.0874.7343-1.1705.6783-1.1816-.0608l-.2911-14.3261c-.026-1.7135,2.1652-2.4471,3.1762-1.0635l6.1626,8.434c.429.587-.3351,1.3022-.8927.8354"/><path class="cls-2" d="m14.1072,35.8825l-.3895-6.1106c-.0235-.3716-.4559-.5623-.7466-.329l-8.1657,5.8793c-.581.4575-1.3074-.3483-.7925-.8786l9.9241-10.3356c1.1933-1.2303,3.2616-.1997,2.9981,1.4937l-1.6062,10.3215c-.1119.7181-1.1579.6836-1.222-.0404"/><path class="cls-2" d="m6.8368,26.1166l4.0455-4.5961c.2461-.2793.0749-.7201-.2952-.7607l-9.9311-1.6167c-.7343-.0874-.6783-1.1705.0608-1.1816l14.3261-.2911c1.7135-.026,2.4471,2.1652,1.0635,3.1762l-8.434,6.1626c-.587.429-1.3022-.3351-.8354-.8927"/><path class="cls-2" d="m8.6014,14.0699l6.1106-.3893c.3716-.0235.5623-.4559.329-.7464l-5.8793-8.1657c-.4575-.581.3483-1.3074.8786-.7925l10.3356,9.9241c1.2303,1.1933.1995,3.2616-1.4937,2.9981l-10.3215-1.6062c-.7181-.1119-.6836-1.1579.0404-1.222"/><path class="cls-2" d="m18.3677,6.7995l4.5961,4.0455c.2793.2461.7201.0749.7607-.2952l1.6167-9.9311c.0874-.7343,1.1705-.6783,1.1816.0608l.2911,14.3261c.026,1.7135-2.1652,2.4471-3.1763,1.0635l-6.1626-8.434c-.429-.587.3351-1.3022.8927-.8354"/><path class="cls-2" d="m30.4142,8.5642l.3895,6.1106c.0235.3716.4559.5623.7466.329l8.1657-5.8793c.581-.4575,1.3074.3483.7925.8786l-9.9241,10.3356c-1.1933,1.2303-3.2616.1997-2.9981-1.4937l1.6062-10.3215c.1119-.7181,1.1579-.6836,1.222.0404"/><path class="cls-2" d="m37.6846,18.3301l-4.0455,4.5961c-.2461.2793-.0749.7201.2952.7607l9.9311,1.6167c.7343.0874.6783,1.1707-.0608,1.1816l-14.3261.2911c-1.7135.026-2.4471-2.1652-1.0635-3.1763l8.434-6.1626c.587-.429,1.3022.3351.8354.8927"/><path class="cls-2" d="m35.9201,30.3768l-6.1106.3895c-.3716.0235-.5623.4559-.329.7464l5.8793,8.1657c.4575.581-.3483,1.3074-.8786.7925l-10.3356-9.9241c-1.2303-1.1933-.1997-3.2616,1.4937-2.9981l10.3215,1.6062c.7181.1119.6836,1.1579-.0404,1.222"/><path class="cls-1" d="m176.0241,22.1195v-10.2462h5.7662c2.0993,0,3.6442.4366,4.6352,1.3085.9904.8726,1.486,2.1513,1.486,3.8368,0,1.6564-.4956,2.9205-1.486,3.7924-.9911.8726-2.5359,1.3085-4.6352,1.3085h-5.7662Zm-4.7461-14.2825v29.275h4.7461v-10.9116h6.5202c2.0993,0,3.9103-.3694,5.4337-1.109,1.5226-.7388,2.7127-1.7964,3.5707-3.1715.8573-1.3751,1.2863-3.0086,1.2863-4.9014,0-1.9218-.429-3.5631-1.2863-4.9236-.858-1.3598-2.048-2.4097-3.5707-3.1493-1.5233-.7388-3.3343-1.109-5.4337-1.109h-11.2663v.0002Zm-18.23,4.0808l4.7905,13.6616h-9.6253s4.8348-13.6616,4.8348-13.6616Zm2.8831-4.0808h-5.6776l-11.0446,29.275h4.8792l2.7945-7.6736h12.2867l2.7945,7.6736h5.0122l-11.0446-29.275h-.0002Zm-27.9887,0l-5.8551,16.9439-2.0847,6.9639h-.0887l-2.0403-6.9639-5.8993-16.9439h-7.0525v29.275h4.3913v-16.9439l-.3548-8.0728h.0444l8.9155,25.0168h3.9477l8.9155-25.0168h.0444l-.3548,8.0728v16.9439h4.3913V7.8369h-6.92Zm-46.7511.7762c-1.7153.8136-3.0238,1.8928-3.9255,3.2379-.9024,1.3459-1.3529,2.8465-1.3529,4.5022,0,1.2718.2808,2.4175.8427,3.4376.5614,1.0201,1.4193,1.8852,2.5727,2.5948,1.1532.7098,2.617,1.2572,4.3913,1.6413l6.4316,1.4638c1.567.3548,2.6392.858,3.2159,1.5082.5767.6507.8649,1.4049.8649,2.2622,0,.8871-.2593,1.6488-.7762,2.2844-.5177.6363-1.2718,1.1166-2.2622,1.4416-.9911.3257-2.1665.4879-3.5263.4879-1.538,0-2.9351-.2217-4.1916-.6653-1.2572-.4436-2.3584-1.0714-3.3045-1.8852-.9467-.813-1.7299-1.7368-2.3508-2.7723l-3.2823,3.2823c.7984,1.183,1.8186,2.2331,3.0606,3.1493,1.242.9169,2.6905,1.6413,4.3469,2.1734,1.6557.5323,3.5187.7984,5.5889.7984,2.3357,0,4.3691-.3548,6.099-1.0646,1.7299-.7098,3.0828-1.7299,4.0585-3.0606.9759-1.3307,1.4638-2.8977,1.4638-4.7017,0-1.9516-.5919-3.5631-1.7743-4.8348-1.183-1.2711-3.1937-2.2178-6.0324-2.8387l-5.9437-1.3307c-1.7451-.384-2.9351-.9161-3.5707-1.5968-.6363-.68-.9537-1.4782-.9537-2.3953,0-.7984.2141-1.515.6431-2.1513.4283-.6356,1.1012-1.1456,2.0183-1.5302.9161-.3839,2.0847-.5767,3.5041-.5767,1.9218,0,3.5851.377,4.99,1.131,1.4042.754,2.6683,1.989,3.7924,3.7037l3.1937-3.0606c-1.3307-1.9218-2.9573-3.378-4.8792-4.3691-1.9226-.9904-4.1992-1.486-6.8308-1.486-2.3662,0-4.4065.4068-6.121,1.2198l-.0002.0002Zm-9.3591,28.4986v-4.0807h-17.077v-8.6938h12.8632v-3.9921h-12.8632v-8.4276h16.4561v-4.0808h-21.2022v29.275s21.8231,0,21.8231,0Z"/><path class="cls-1" d="m172.088,47.5467v.6783h3.5589v-.6783h-3.5589Zm.9831-1.1798v4.8765c.0065.3145.0737.5688.2015.7619.1278.1934.2999.3342.5162.4227s.4489.1327.698.1327c.2687,0,.5063-.0394.7128-.1179.2064-.0787.385-.1869.5359-.3245l-.2753-.6587c-.1116.1116-.236.2001-.3736.2654-.1376.0655-.3015.0984-.4917.0984-.2163,0-.3932-.059-.5308-.1769s-.2066-.2981-.2066-.5408v-4.955l-.7865.2163v-.0002Zm-5.4073,6.0956v-2.6152c0-.4194.0769-.7536.2311-1.0028.1538-.249.349-.4292.585-.5408.236-.1114.472-.1672.708-.1672.3407,0,.6276.1065.8604.3196.2326.2131.349.5915.349,1.1355v2.8708h.7865v-3.146c0-.4259-.087-.7768-.2605-1.0519-.1737-.2753-.4048-.4801-.6932-.6144-.2885-.1343-.6096-.2015-.9634-.2015-.2492,0-.49.0361-.7226.1082-.2327.0722-.4375.1885-.6144.349-.1769.1607-.318.3721-.4227.6341l.1278.1082-.0688-1.1012h-.6881v4.9158h.7865l-.0005-.0002Zm-3.3378-.0345c.2589-.0885.485-.2147.6784-.3784.1932-.1638.3523-.3571.4768-.5801l-.6193-.3638c-.1376.236-.3196.4227-.5456.5604s-.5195.2064-.8798.2064c-.3342,0-.6211-.0737-.8604-.2212-.2394-.1475-.4245-.362-.5554-.644-.1313-.2817-.1966-.6161-.1966-1.0028,0-.3933.0639-.7291.1918-1.0077.1278-.2784.308-.4917.5408-.639.2326-.1475.5095-.2212.8307-.2212.4194,0,.7585.1278,1.0176.3835.2589.2557.3884.6193.3884,1.0913l.403-.0787h-3.6277v.698h3.9719c.013-.072.0229-.1538.0294-.2457.0065-.0917.0098-.1932.0098-.3048,0-.4194-.0852-.7979-.2557-1.1355-.1704-.3375-.4178-.6047-.7423-.8013s-.7161-.295-1.1749-.295c-.4523,0-.8553.1017-1.2094.3048-.3539.2033-.6327.4965-.8356.8799-.2033.3835-.3048.8407-.3048,1.3715s.1015.988.3048,1.3715c.2031.3835.4866.6769.8504.8799.3638.2033.7782.3048,1.2437.3048.321,0,.611-.0442.8701-.1327v.0002Zm-11.3111.0345v-2.6249c0-.4063.0753-.734.2261-.9831.1508-.249.3393-.4308.5653-.5456.2261-.1147.4472-.1721.6635-.1721.3277,0,.6031.0984.8259.295s.3342.5178.3342.9634v3.0675h.7865v-2.6939c0-.3539.0672-.6522.2015-.8947s.3129-.4259.5359-.5505c.2228-.1244.462-.1869.7177-.1869.3277,0,.6029.0984.8259.295.2228.1966.3344.5178.3344.9634v3.0675h.7865v-3.146c0-.4326-.0919-.7865-.2753-1.0619-.1836-.2753-.4178-.4783-.7029-.6096-.2851-.1311-.585-.1966-.8995-.1966-.2031,0-.4178.0345-.644.1033-.2261.0688-.4342.1737-.6244.3145-.1901.141-.3376.3228-.4424.5456-.1639-.3277-.3997-.5702-.7078-.7275-.3082-.1573-.6357-.236-.9831-.236-.3015,0-.5948.0688-.8798.2064s-.5162.3573-.6932.6587l-.0491-.7668h-.6883v4.9158h.7865v-.0002Zm-3.3378-.0345c.2589-.0885.485-.2147.6784-.3784.1932-.1638.3523-.3571.4768-.5801l-.6193-.3638c-.1376.236-.3196.4227-.5456.5604-.2261.1376-.5195.2064-.8798.2064-.3342,0-.6211-.0737-.8602-.2212-.2394-.1475-.4245-.362-.5554-.644-.1313-.2817-.1966-.6161-.1966-1.0028,0-.3933.0639-.7291.1918-1.0077.1278-.2784.308-.4917.5408-.639.2326-.1475.5095-.2212.8307-.2212.4194,0,.7585.1278,1.0176.3835.2589.2557.3884.6193.3884,1.0913l.403-.0787h-3.6277v.698h3.9719c.013-.072.0229-.1538.0294-.2457.0065-.0917.0098-.1932.0098-.3048,0-.4194-.0852-.7979-.2557-1.1355-.1704-.3375-.4178-.6047-.7423-.8013s-.7161-.295-1.1749-.295c-.4523,0-.8553.1017-1.2094.3048-.3539.2033-.6327.4965-.8356.8799-.2033.3835-.3048.8407-.3048,1.3715s.1015.988.3048,1.3715c.2031.3835.4866.6769.8504.8799.3638.2033.7782.3048,1.2437.3048.321,0,.611-.0442.8701-.1327l-.0002.0002Zm-5.4319-4.0603c.2293.1869.3441.4342.3441.7423,0,.3015-.1148.5473-.3441.7374-.2295.1901-.5146.2851-.8553.2851s-.626-.095-.8553-.2851c-.2295-.1899-.3441-.4359-.3441-.7374,0-.308.1147-.5554.3441-.7423.2293-.1869.5144-.2802.8553-.2802s.6258.0933.8553.2802Zm-1.8975-.7078c-.3015.141-.5391.336-.7128.585-.1737.2492-.2605.5375-.2605.8652,0,.4852.1735.8833.5211,1.1946.3474.3115.8455.4669,1.4945.4669.3932,0,.7423-.0704,1.0471-.2114.3048-.1408.5422-.3375.7128-.5899.1704-.2522.2557-.539.2557-.8602,0-.3277-.0852-.6161-.2557-.8652-.1704-.249-.4081-.444-.7128-.585-.3048-.1408-.6538-.2114-1.0471-.2114s-.7408.0706-1.0422.2114Zm-.0442,6.0414c-.2786-.1443-.4178-.3376-.4178-.5801,0-.1901.072-.3393.2163-.4474.1441-.1082.321-.1621.5308-.1621h1.514c.3671,0,.6209.0524.7619.1573.1408.1047.2114.2457.2114.4227,0,.1441-.059.2786-.1769.403-.1181.1244-.2999.2261-.5456.3048s-.5588.1179-.9389.1179c-.4915,0-.8766-.0722-1.1552-.2163v.0004Zm.6244-1.868c-.2425,0-.431-.0442-.5653-.1327s-.2015-.2244-.2015-.4081c0-.1508.0672-.29.2015-.4178.1343-.1278.362-.208.6832-.2409h.0982l-.5211-.2654c-.3932.0459-.6899.1656-.8898.3588-.2001.1934-.2999.4245-.2999.6932,0,.2688.0769.4736.2311.6144.1538.141.3423.2409.5653.2999l.0688-.1475c-.4129.0264-.7063.1426-.8798.349-.1737.2064-.2605.4407-.2605.7029,0,.3671.1918.6816.5753.9438.3835.262.9618.3933,1.7353.3933.4456,0,.847-.0639,1.2043-.1917.3571-.1278.6422-.3097.8553-.5456.2129-.236.3196-.5146.3196-.8356,0-.3539-.1313-.6374-.3932-.8504-.2622-.2129-.626-.3196-1.0913-.3196h-1.4354v.0002Zm2.9052-5.191h-.0246c-.2425,0-.4655.0509-.6686.1524-.2033.1017-.3638.2475-.4817.4375-.1179.1901-.1769.4129-.1769.6686l.4817.2457c0-.2817.0869-.4866.2605-.6144.1735-.1278.4211-.1917.7423-.1917h.0688l-.1769-.698s-.0246,0-.0246,0Zm-6.6116,4.0015c0,.2098-.0394.3918-.1179.5456-.0787.154-.1869.2818-.3245.3835-.1376.1017-.2934.1769-.4669.2261-.1737.0491-.3557.0737-.5456.0737-.2948,0-.5227-.0639-.6832-.1917-.1607-.1278-.2409-.2932-.2409-.4965,0-.2096.0787-.3736.236-.4917.1573-.1179.3965-.2096.7177-.2753l1.5828-.3245v-.6489l-1.9466.3835c-.4391.0852-.7816.2475-1.0274.4866-.2457.2394-.3687.5424-.3687.9095,0,.295.0737.5424.2212.7423.1475.2001.3456.349.5948.4474.249.0984.5176.1475.8062.1475.2293,0,.462-.0377.698-.113s.4489-.1932.639-.3539c.1901-.1605.3245-.3687.4032-.6244l-.1966-.0294v.0984c0,.223.0426.4081.1278.5554.085.1475.2031.2573.3539.3293.1508.072.321.1082.5113.1082.2096,0,.3801-.0329.5111-.0984l.0394-.6193c-.1179.0329-.2394.0491-.3638.0491-.2492,0-.3736-.1179-.3736-.3539v-2.3792c0-.3866-.0836-.7029-.2508-.9488-.1672-.2457-.3949-.4292-.6832-.5505-.2885-.1212-.6096-.1818-.9634-.1818-.5245,0-.9634.113-1.3173.3393-.3539.2261-.5966.5227-.7276.8898l.639.3933c.1114-.3277.2851-.5653.5211-.7128s.5243-.2212.8652-.2212c.3604,0,.639.1.8356.2999.1966.2001.2948.4833.2948.8504v1.3567h0Zm-7.9734,1.8187v-2.6152c0-.4194.0769-.7536.2311-1.0028.1538-.249.349-.4292.585-.5408.236-.1114.472-.1672.708-.1672.3407,0,.6276.1065.8604.3196.2326.2131.349.5915.349,1.1355v2.8708h.7865v-3.146c0-.4259-.087-.7768-.2605-1.0519-.1737-.2753-.4048-.4801-.6932-.6144-.2885-.1343-.6096-.2015-.9634-.2015-.2492,0-.49.0361-.7226.1082-.2327.0722-.4375.1885-.6144.349-.1769.1607-.318.3721-.4227.6341l.1278.1082-.0688-1.1012h-.6881v4.9158h.7865l-.0005-.0002Zm-3.2836-1.8187c0,.2098-.0394.3918-.1179.5456-.0787.154-.1869.2818-.3245.3835-.1376.1017-.2934.1769-.4669.2261-.1737.0491-.3557.0737-.5456.0737-.295,0-.5227-.0639-.6832-.1917-.1607-.1278-.2409-.2932-.2409-.4965,0-.2096.0787-.3736.236-.4917.1573-.1179.3965-.2096.7177-.2753l1.5829-.3245v-.6489l-1.9466.3835c-.4391.0852-.7816.2475-1.0274.4866-.2457.2394-.3687.5424-.3687.9095,0,.295.0737.5424.2212.7423.1475.2001.3456.349.5948.4474.249.0984.5176.1475.8062.1475.2293,0,.462-.0377.698-.113s.4489-.1932.639-.3539c.1899-.1605.3245-.3687.403-.6244l-.1966-.0294v.0984c0,.223.0426.4081.1278.5554.085.1475.2031.2573.3539.3293.1508.072.321.1082.5113.1082.2096,0,.3801-.0329.5111-.0984l.0394-.6193c-.1181.0329-.2394.0491-.3638.0491-.2492,0-.3736-.1179-.3736-.3539v-2.3792c0-.3866-.0836-.7029-.2506-.9488s-.3949-.4292-.6832-.5505c-.2885-.1212-.6096-.1818-.9634-.1818-.5245,0-.9634.113-1.3173.3393s-.5966.5227-.7275.8898l.639.3933c.1114-.3277.2851-.5653.5211-.7128s.5243-.2212.8652-.2212c.3604,0,.6392.1.8356.2999.1966.2001.295.4833.295.8504v1.3567h-.0005Zm-5.8005-4.6699l-1.4157,3.9522-.5014,1.6124h-.0197l-.4917-1.6221-1.4255-3.9424h-1.2092v6.4888h.7471v-4.08l-.0885-1.7106h.0098l2.1335,5.7908h.6686l2.1335-5.7908h.0098l-.0885,1.7106v4.08h.7471v-6.4888h-1.2092Zm-11.1696,6.4888v-2.6545c0-.3671.0688-.67.2064-.9095.1376-.2392.3097-.4178.5162-.5359.2064-.1179.4113-.1769.6144-.1769.1573,0,.2784.0067.3638.0197.085.0132.1638.0329.236.059l.1376-.7177c-.0722-.0394-.1591-.0654-.2605-.0787-.1017-.013-.1952-.0197-.2802-.0197-.3803,0-.7029.0755-.9683.2261-.2654.1508-.4671.377-.6047.6783l-.1082-.8062h-.639v4.9158h.7865v.0002Zm-3.5985-4.1096c.236.1508.4178.3654.5456.644s.1918.6144.1918,1.0077c0,.3867-.0639.7211-.1918,1.0028-.1278.2818-.3097.4982-.5456.6489s-.5211.2261-.8553.2261-.6193-.0753-.8553-.2261c-.236-.1508-.4178-.3671-.5456-.6489-.1278-.2817-.1918-.6161-.1918-1.0028,0-.3933.0639-.7291.1918-1.0077.1278-.2784.3097-.4931.5456-.644.236-.1508.5211-.2261.8553-.2261s.6193.0755.8553.2261Zm-2.0843-.5998c-.3606.2033-.6424.4965-.8455.8799-.2033.3835-.3048.8407-.3048,1.3715s.1015.988.3048,1.3715c.2031.3835.485.6769.8455.8799.3604.2033.7701.3048,1.2289.3048.4653,0,.8766-.1015,1.2339-.3048.3571-.2031.6374-.4965.8407-.8799.2031-.3835.3048-.8407.3048-1.3715s-.1017-.988-.3048-1.3715c-.2033-.3835-.4833-.6767-.8407-.8799-.3573-.2031-.7684-.3048-1.2339-.3048-.4588,0-.8685.1017-1.2289.3048Zm-5.3385-.2064v.6783h3.5589v-.6783h-3.5589Zm.9831-1.1798v4.8765c.0065.3145.0737.5688.2015.7619.1278.1934.2999.3342.5162.4227s.4489.1327.698.1327c.2687,0,.5063-.0394.7128-.1179.2066-.0787.3849-.1869.5359-.3245l-.2753-.6587c-.1116.1116-.236.2001-.3736.2654-.1376.0655-.3015.0984-.4917.0984-.2163,0-.3933-.059-.5308-.1769s-.2066-.2981-.2066-.5408v-4.955l-.7865.2163v-.0002Zm-4.8765,1.3863c-.3606.2033-.6424.4965-.8455.8799-.2033.3835-.3048.8407-.3048,1.3715s.1015.988.3048,1.3715c.2031.3835.485.6769.8455.8799.3604.2033.7701.3048,1.2289.3048.3474,0,.657-.0574.9291-.1721.2719-.1147.5047-.2802.698-.4965.1932-.2163.3456-.4752.4572-.7768l-.7275-.2557c-.0459.2163-.1295.3999-.2506.5505-.1213.1508-.2753.2654-.462.3441-.1869.0787-.4081.1179-.6637.1179-.3279,0-.6096-.0737-.8455-.2212s-.4164-.362-.5408-.644c-.1246-.2817-.1869-.6161-.1869-1.0028,0-.3933.0623-.7291.1869-1.0077.1244-.2784.3048-.4917.5408-.639.236-.1475.5177-.2212.8455-.2212.3407,0,.6177.0836.8307.2506.2129.1672.3719.4081.4768.7226l.7471-.3539c-.1179-.2687-.2721-.5014-.462-.698-.1901-.1966-.4146-.3474-.6735-.4523-.2589-.1047-.5588-.1573-.8995-.1573-.4588,0-.8685.1017-1.2289.3048l-.0002.0004Zm-3.3574,4.675c.2589-.0885.485-.2147.6783-.3784.1932-.1638.3523-.3571.4768-.5801l-.6193-.3638c-.1376.236-.3196.4227-.5456.5604s-.5195.2064-.8799.2064c-.3342,0-.6211-.0737-.8604-.2212-.2394-.1475-.4245-.362-.5554-.644-.1313-.2817-.1966-.6161-.1966-1.0028,0-.3933.0639-.7291.1918-1.0077.1278-.2784.308-.4917.5408-.639.2326-.1475.5095-.2212.8307-.2212.4194,0,.7585.1278,1.0176.3835.2589.2557.3884.6193.3884,1.0913l.403-.0787h-3.6277v.698h3.9719c.013-.072.0229-.1538.0294-.2457.0065-.0917.0098-.1932.0098-.3048,0-.4194-.0852-.7979-.2557-1.1355-.1704-.3375-.4178-.6047-.7423-.8013s-.7161-.295-1.1749-.295c-.4523,0-.8553.1017-1.2094.3048-.3539.2033-.6327.4965-.8356.8799-.2033.3835-.3048.8407-.3048,1.3715s.1015.988.3048,1.3715c.2031.3835.4866.6769.8504.8799.3638.2033.7782.3048,1.2437.3048.321,0,.611-.0442.8701-.1327v.0002Zm-8.0914-6.2871c-.3638.1769-.6424.4113-.8356.7029-.1934.2918-.29.6112-.29.9586,0,.2557.0542.4933.1623.7128.1082.2197.2851.4097.5308.5702.2457.1607.5686.2867.9685.3784l1.5239.3441c.3801.0852.639.2114.7768.3784.1376.1672.2064.3557.2064.5653,0,.2295-.0655.4245-.1966.585-.1313.1607-.3196.2818-.5653.3638s-.5359.123-.8701.123c-.3606,0-.68-.0524-.9586-.1573-.2786-.1047-.5162-.2522-.7128-.4424-.1966-.1899-.3573-.4095-.4817-.6587l-.6883.5604c.1638.2688.3736.5112.6292.7275.2557.2163.5619.3884.9192.5162.3571.1278.7717.1917,1.2437.1917.5047,0,.9438-.0787,1.3175-.236.3736-.1573.6635-.3784.8701-.6635s.3097-.611.3097-.9783c0-.4129-.123-.7585-.3687-1.0373-.2457-.2786-.6802-.4866-1.3027-.6244l-1.406-.3145c-.4326-.0984-.7211-.2342-.8652-.4081-.1443-.1735-.2163-.3752-.2163-.6047,0-.2031.0524-.3849.1573-.5456.1047-.1605.2703-.29.4965-.3884s.5128-.1475.8604-.1475c.4326,0,.8013.087,1.1061.2605.3048.1737.5783.4703.821.8898l.6587-.5112c-.2753-.4523-.6195-.7946-1.0322-1.0274-.4129-.2326-.9046-.349-1.4748-.349-.4982,0-.9291.0885-1.2928.2654l-.0002-.0002Zm-5.5303,1.406l-1.1503,3.1068-.3539.9734-.3048-.875-1.2289-3.2051h-.8947l1.5633,3.7359.4917,1.17-.2557.639c-.1246.321-.2622.5341-.4129.639-.1508.1047-.3115.1573-.4817.1573-.1443,0-.29-.028-.4375-.0836-.1475-.0558-.2867-.1426-.4178-.2605l-.2163.6883c.1441.1047.3097.1883.4965.2506s.3916.0933.6144.0933c.236,0,.444-.041.6244-.123.1802-.082.3441-.2163.4917-.403s.2835-.4409.4081-.7619l2.3104-5.7415h-.8459Zm-5.7021.821c.2293.1869.3441.4342.3441.7423,0,.3015-.1148.5473-.3441.7374-.2295.1901-.5146.2851-.8553.2851s-.626-.095-.8553-.2851c-.2295-.1899-.3441-.4359-.3441-.7374,0-.308.1147-.5554.3441-.7423.2293-.1869.5144-.2802.8553-.2802s.6258.0933.8553.2802Zm-1.8975-.7078c-.3015.141-.5391.336-.7128.585-.1737.2492-.2605.5375-.2605.8652,0,.4852.1735.8833.5211,1.1946.3474.3115.8455.4669,1.4943.4669.3933,0,.7423-.0704,1.047-.2114.3048-.1408.5422-.3375.7128-.5899.1704-.2522.2557-.539.2557-.8602,0-.3277-.0852-.6161-.2557-.8652-.1704-.249-.4081-.444-.7128-.585-.3048-.1408-.6538-.2114-1.047-.2114s-.7408.0706-1.0422.2114h.0002Zm-.0442,6.0414c-.2786-.1443-.4178-.3376-.4178-.5801,0-.1901.072-.3393.2163-.4474.1441-.1082.321-.1621.5308-.1621h1.514c.3671,0,.6209.0524.7619.1573.1408.1047.2114.2457.2114.4227,0,.1441-.059.2786-.1769.403s-.2999.2261-.5456.3048-.5588.1179-.9389.1179c-.4917,0-.8766-.0722-1.1552-.2163v.0004Zm.6244-1.868c-.2425,0-.431-.0442-.5653-.1327-.1343-.0885-.2015-.2244-.2015-.4081,0-.1508.0672-.29.2015-.4178.1343-.1278.362-.208.6832-.2409h.0984l-.5211-.2654c-.3933.0459-.6899.1656-.8898.3588-.2001.1934-.2999.4245-.2999.6932,0,.2688.0769.4736.2311.6144.1538.141.3423.2409.5653.2999l.0688-.1475c-.4129.0264-.7063.1426-.8799.349-.1737.2064-.2605.4407-.2605.7029,0,.3671.1918.6816.5751.9438.3835.262.9618.3933,1.7353.3933.4456,0,.847-.0639,1.2043-.1917.3571-.1278.6422-.3097.8553-.5456.2129-.236.3196-.5146.3196-.8356,0-.3539-.1313-.6374-.3933-.8504-.2622-.2129-.626-.3196-1.0913-.3196h-1.4354v.0002Zm2.9052-5.191h-.0246c-.2425,0-.4655.0509-.6686.1524-.2033.1017-.3638.2475-.4817.4375-.1179.1901-.1769.4129-.1769.6686l.4817.2457c0-.2817.0868-.4866.2605-.6144.1735-.1278.4211-.1917.7423-.1917h.0688l-.1769-.698s-.0246,0-.0246,0Zm-6.8969,5.8202v-2.6545c0-.3671.0688-.67.2064-.9095.1376-.2392.3097-.4178.5162-.5359s.4113-.1769.6144-.1769c.1573,0,.2784.0067.3638.0197.085.0132.1638.0329.236.059l.1376-.7177c-.0722-.0394-.1591-.0654-.2605-.0787-.1017-.013-.1952-.0197-.2802-.0197-.3803,0-.7029.0755-.9683.2261-.2654.1508-.4669.377-.6047.6783l-.1082-.8062h-.639v4.9158h.7865v.0002Zm-3.3378-.0345c.2589-.0885.485-.2147.6783-.3784.1932-.1638.3523-.3571.4768-.5801l-.6193-.3638c-.1376.236-.3196.4227-.5456.5604s-.5195.2064-.8799.2064c-.3342,0-.6211-.0737-.8602-.2212-.2394-.1475-.4245-.362-.5556-.644-.1313-.2817-.1966-.6161-.1966-1.0028,0-.3933.0639-.7291.1918-1.0077.1278-.2784.308-.4917.5408-.639.2326-.1475.5095-.2212.8307-.2212.4194,0,.7585.1278,1.0176.3835.2589.2557.3884.6193.3884,1.0913l.403-.0787h-3.6277v.698h3.9719c.013-.072.0229-.1538.0294-.2457.0065-.0917.0098-.1932.0098-.3048,0-.4194-.0852-.7979-.2557-1.1355-.1704-.3375-.4178-.6047-.7423-.8013s-.7161-.295-1.1749-.295c-.4523,0-.8553.1017-1.2092.3048-.3539.2033-.6327.4965-.8356.8799-.2033.3835-.3048.8407-.3048,1.3715s.1015.988.3048,1.3715c.2031.3835.4866.6769.8504.8799.3638.2033.7782.3048,1.2437.3048.321,0,.611-.0442.8701-.1327l-.0002.0002Zm-8.0273.0345v-2.6152c0-.4194.0769-.7536.2311-1.0028.1538-.249.349-.4292.585-.5408.236-.1114.472-.1672.708-.1672.3407,0,.6274.1065.8602.3196.2326.2131.349.5915.349,1.1355v2.8708h.7865v-3.146c0-.4259-.087-.7768-.2605-1.0519-.1737-.2753-.4048-.4801-.6932-.6144-.2885-.1343-.6096-.2015-.9634-.2015-.2492,0-.49.0361-.7226.1082-.2327.0722-.4375.1885-.6144.349-.1769.1607-.318.3721-.4227.6341l.1278.1082-.0688-1.1012h-.6883v4.9158h.7865l-.0002-.0002Zm-2.0154,0v-.7374h-3.913v-2.1826h2.9297v-.7374h-2.9297v-2.0941h3.7655v-.7374h-4.552v6.4888s4.6995,0,4.6995,0Z"/><path class="cls-1" d="m132.6242,62.982v-2.6249c0-.4062.0753-.734.2261-.9831.1508-.249.3393-.431.5653-.5456.2261-.1147.4474-.1721.6635-.1721.3277,0,.6029.0984.8259.295.2228.1966.3344.5178.3344.9634v3.0675h.7865v-2.6939c0-.3539.0672-.6522.2015-.8947s.3129-.4259.5359-.5505c.2228-.1244.462-.1869.7177-.1869.3277,0,.6029.0984.8259.295.2228.1966.3342.5178.3342.9634v3.0675h.7865v-3.146c0-.4326-.0919-.7865-.2752-1.0619-.1836-.2753-.4178-.4783-.7029-.6096-.2851-.1311-.585-.1966-.8995-.1966-.2033,0-.4178.0345-.644.1033-.2261.0688-.4342.1737-.6244.3145-.1901.141-.3376.3228-.4424.5456-.1639-.3277-.3999-.5702-.708-.7275-.3082-.1573-.6357-.236-.9831-.236-.3015,0-.5948.0688-.8798.2064s-.5162.3573-.6932.6587l-.0491-.7668h-.6881v4.9158h.7865l-.0002-.0002Zm-3.2836-1.8187c0,.2098-.0394.3918-.1179.5456-.0787.154-.1869.2819-.3245.3835-.1376.1017-.2934.1769-.4669.2261-.1737.0491-.3557.0737-.5456.0737-.295,0-.5227-.0639-.6832-.1918-.1607-.1278-.2409-.2932-.2409-.4965,0-.2096.0787-.3736.236-.4917s.3965-.2096.7177-.2753l1.5829-.3245v-.6489l-1.9466.3835c-.4391.0852-.7816.2475-1.0274.4866-.2457.2394-.3687.5424-.3687.9095,0,.295.0737.5424.2212.7423.1475.2001.3456.349.5948.4474.249.0984.5176.1475.8062.1475.2293,0,.462-.0377.698-.113s.4489-.1932.639-.3539c.1899-.1605.3245-.3687.403-.6244l-.1966-.0294v.0984c0,.223.0426.4081.1278.5554.085.1475.2031.2573.3539.3293.1508.072.321.1082.5113.1082.2096,0,.3801-.0329.5111-.0984l.0394-.6193c-.1181.0329-.2394.0491-.3638.0491-.2492,0-.3736-.1179-.3736-.3539v-2.3792c0-.3866-.0836-.7029-.2506-.9488-.1672-.2457-.3949-.4292-.6832-.5505-.2885-.1212-.6096-.1818-.9634-.1818-.5245,0-.9634.113-1.3173.3393s-.5966.5227-.7275.8898l.639.3933c.1114-.3277.2851-.5653.5211-.7128s.5243-.2212.8652-.2212c.3604,0,.6392.1.8356.2999.1966.2001.295.4833.295.8504v1.3567h-.0005Zm-5.7623,1.8187v-2.6545c0-.3671.0688-.67.2064-.9095.1376-.2392.3097-.4178.5162-.5359s.4113-.1769.6144-.1769c.1573,0,.2786.0067.3638.0197.085.0132.1638.0329.236.059l.1376-.7177c-.0722-.0394-.1591-.0654-.2605-.0787-.1016-.013-.1952-.0197-.2802-.0197-.3803,0-.7029.0755-.9683.2261-.2654.1508-.4669.377-.6047.6784l-.1082-.8062h-.639v4.9158h.7865v.0002Zm-3.2935-4.0948c.2293.1869.3441.4342.3441.7423,0,.3015-.1147.5473-.3441.7374s-.5146.2851-.8553.2851-.626-.095-.8553-.2851c-.2295-.1899-.3441-.4359-.3441-.7374,0-.308.1147-.5554.3441-.7423.2293-.1869.5144-.2802.8553-.2802s.6258.0933.8553.2802Zm-1.8975-.7078c-.3015.141-.5391.336-.7128.585-.1737.2492-.2605.5375-.2605.8652,0,.4852.1735.8833.5211,1.1946.3474.3115.8455.4669,1.4945.4669.3932,0,.7423-.0704,1.0471-.2114.3048-.1408.5422-.3375.7128-.5899.1704-.2522.2557-.539.2557-.8602,0-.3277-.0852-.6161-.2557-.8652-.1704-.249-.4081-.444-.7128-.585-.3048-.1408-.6538-.2114-1.0471-.2114s-.7408.0706-1.0422.2114Zm-.0442,6.0414c-.2786-.1443-.4178-.3376-.4178-.5801,0-.1901.072-.3393.2163-.4474.1441-.1082.321-.1621.5308-.1621h1.5141c.3669,0,.6209.0524.7619.1573.1408.1047.2114.2457.2114.4227,0,.1441-.059.2786-.1769.403s-.2999.2261-.5456.3048-.5588.1179-.9389.1179c-.4917,0-.8768-.0722-1.1552-.2163l-.0002.0004Zm.6244-1.868c-.2425,0-.431-.0442-.5653-.1327s-.2015-.2244-.2015-.4081c0-.1508.0672-.29.2015-.4178s.362-.208.6832-.2409h.0984l-.5211-.2654c-.3932.0459-.6899.1656-.8898.3588-.2001.1934-.2999.4245-.2999.6932,0,.2688.0769.4736.2311.6144.1538.141.3425.2409.5653.2999l.0688-.1475c-.4129.0264-.7063.1426-.88.349s-.2605.4407-.2605.7029c0,.3671.1918.6816.5751.9438.3835.262.9618.3933,1.7353.3933.4456,0,.847-.0639,1.2043-.1918.3571-.1278.6422-.3097.8553-.5456.2129-.236.3196-.5146.3196-.8356,0-.3539-.1313-.6374-.3932-.8504-.2622-.2129-.626-.3196-1.0913-.3196h-1.4354l.0002.0002Zm2.9052-5.191h-.0246c-.2425,0-.4655.0509-.6686.1524-.2033.1017-.3638.2475-.4817.4375-.1179.1901-.1769.4129-.1769.6686l.4817.2457c0-.2817.0869-.4866.2605-.6144.1735-.1278.4211-.1918.7423-.1918h.0688l-.1769-.698s-.0246,0-.0246,0Zm-6.9263,1.7108c.236.1508.4178.3654.5456.644.1278.2786.1918.6144.1918,1.0077,0,.3867-.0639.7211-.1918,1.0028-.1278.2819-.3097.4982-.5456.6489s-.5211.2261-.8553.2261-.6193-.0753-.8553-.2261c-.236-.1508-.4178-.3671-.5456-.6489-.1278-.2817-.1918-.6161-.1918-1.0028,0-.3933.0639-.7291.1918-1.0077.1278-.2784.3097-.4931.5456-.644.236-.1508.5211-.2261.8553-.2261s.6193.0755.8553.2261Zm-2.0843-.5998c-.3606.2033-.6424.4965-.8455.8799-.2033.3835-.3048.8407-.3048,1.3715s.1015.988.3048,1.3715c.2031.3835.485.6769.8455.8799.3604.2033.7701.3048,1.2289.3048.4653,0,.8766-.1015,1.2339-.3048.3571-.2031.6374-.4965.8407-.8799.2031-.3835.3048-.8407.3048-1.3715s-.1016-.988-.3048-1.3715c-.2033-.3835-.4833-.6767-.8407-.8799s-.7686-.3048-1.2339-.3048c-.4588,0-.8685.1017-1.2289.3048Zm-3.677,4.7093v-2.6545c0-.3671.0688-.67.2066-.9095.1376-.2392.3097-.4178.5162-.5359.2066-.1179.4113-.1769.6144-.1769.1573,0,.2786.0067.3638.0197.085.0132.1638.0329.236.059l.1376-.7177c-.0722-.0394-.1589-.0654-.2605-.0787-.1017-.013-.1952-.0197-.2802-.0197-.3803,0-.7029.0755-.9683.2261-.2654.1508-.4669.377-.6047.6783l-.1082-.8062h-.639v4.9158h.7865l-.0002.0002Zm-5.653-3.2738v-2.4776h1.3863c.5112,0,.8849.1049,1.1207.3145.236.2098.3539.5178.3539.9241,0,.3999-.1179.7063-.3539.9192-.236.2131-.6096.3196-1.1207.3196h-1.3863v.0002Zm-.7865-3.2148v6.4888h.7865v-2.5365h1.5042c.4391,0,.821-.0802,1.1454-.2409.3245-.1605.5783-.3884.7619-.6832.1834-.295.2753-.6455.2753-1.0519s-.0919-.7571-.2753-1.0519c-.1836-.295-.4375-.5225-.7619-.6832-.3245-.1605-.7063-.2409-1.1454-.2409h-2.2907v-.0004Zm-5.8547,6.4543c.2589-.0885.485-.2147.6783-.3784.1932-.1638.3523-.3571.4768-.5801l-.6193-.3638c-.1376.236-.3196.4227-.5456.5604s-.5195.2064-.8799.2064c-.3342,0-.6211-.0737-.8602-.2212-.2394-.1475-.4245-.362-.5556-.644-.1313-.2817-.1966-.6161-.1966-1.0028,0-.3933.0639-.7291.1918-1.0077.1278-.2784.308-.4917.5408-.639.2326-.1475.5095-.2212.8307-.2212.4194,0,.7585.1278,1.0176.3835.2589.2557.3884.6193.3884,1.0913l.403-.0787h-3.6277v.698h3.9719c.013-.072.0229-.1538.0294-.2457.0065-.0917.0098-.1932.0098-.3048,0-.4194-.0852-.7979-.2557-1.1355-.1704-.3375-.4178-.6047-.7423-.8013s-.7161-.295-1.1749-.295c-.4523,0-.8553.1017-1.2092.3048-.3539.2033-.6327.4965-.8356.8799-.2033.3835-.3048.8407-.3048,1.3715s.1015.988.3048,1.3715c.2031.3835.4866.6769.8504.8799.3638.2033.7782.3048,1.2437.3048.321,0,.6112-.0442.8701-.1327l-.0002.0002Zm-7.4277-4.675c-.3606.2033-.6424.4965-.8455.8799-.2033.3835-.3048.8407-.3048,1.3715s.1015.988.3048,1.3715c.2031.3835.485.6769.8455.8799.3604.2033.7701.3048,1.2289.3048.3474,0,.657-.0574.9291-.1721.2719-.1147.5047-.2802.698-.4965.1932-.2163.3456-.4752.4572-.7768l-.7275-.2557c-.0459.2163-.1295.3999-.2506.5505-.1213.1508-.2753.2654-.462.3441-.1869.0787-.4081.1179-.6637.1179-.3279,0-.6096-.0737-.8455-.2212-.236-.1475-.4164-.362-.5408-.644-.1246-.2817-.1869-.6161-.1869-1.0028,0-.3933.0623-.7291.1869-1.0077.1244-.2784.3048-.4917.5408-.639.236-.1475.5177-.2212.8455-.2212.3407,0,.6177.0836.8307.2506.2129.1672.3719.4081.4768.7226l.7471-.3539c-.1179-.2687-.2721-.5014-.462-.698-.1901-.1966-.4146-.3474-.6735-.4523-.2589-.1047-.5588-.1573-.8995-.1573-.4588,0-.8685.1017-1.2289.3048l-.0002.0004Zm-5.9087,4.7093v-2.6152c0-.4194.0769-.7536.2311-1.0028.1538-.249.349-.4292.585-.5408.236-.1114.472-.1672.708-.1672.3407,0,.6274.1065.8602.3196.2326.2131.349.5915.349,1.1355v2.8708h.7865v-3.146c0-.4259-.087-.7768-.2605-1.0519-.1737-.2753-.4048-.4801-.6932-.6144-.2885-.1343-.6096-.2015-.9634-.2015-.2492,0-.49.0361-.7226.1082-.2327.0722-.4375.1885-.6144.349-.1769.1607-.318.3721-.4227.6341l.1278.1082-.0688-1.101h-.6883v4.9158h.7865l-.0002-.0003Zm-3.2836-1.8187c0,.2098-.0394.3918-.1179.5456-.0787.154-.1869.2819-.3245.3835-.1376.1017-.2934.1769-.4669.2261-.1737.0491-.3557.0737-.5456.0737-.295,0-.5227-.0639-.6832-.1918-.1607-.1278-.2409-.2932-.2409-.4965,0-.2096.0787-.3736.236-.4917s.3965-.2096.7177-.2753l1.5829-.3245v-.6489l-1.9466.3835c-.4391.0852-.7816.2475-1.0274.4866-.2457.2394-.3687.5424-.3687.9095,0,.295.0737.5424.2212.7423.1475.2001.3456.349.5948.4474.249.0984.5177.1475.8062.1475.2293,0,.462-.0377.698-.113s.4489-.1932.639-.3539c.1899-.1605.3245-.3687.4032-.6244l-.1966-.0294v.0984c0,.223.0426.4081.1278.5554.085.1475.2031.2573.3539.3293.1508.072.321.1082.5113.1082.2096,0,.3801-.0329.5112-.0984l.0394-.6193c-.1179.0329-.2394.0491-.3638.0491-.2492,0-.3736-.1179-.3736-.3539v-2.3792c0-.3866-.0836-.7029-.2506-.9488-.1672-.2457-.3949-.4292-.6832-.5505-.2885-.1212-.6096-.1818-.9634-.1818-.5245,0-.9634.113-1.3173.3393-.3539.2261-.5966.5227-.7275.8898l.639.3933c.1114-.3277.2851-.5653.5211-.7128s.5243-.2212.8652-.2212c.3604,0,.639.1.8356.2999.1966.2001.295.4833.295.8504v1.3567h-.0007Zm-7.4032-3.0969v.6783h3.5589v-.6784s-3.5589,0-3.5589,0Zm.9831-1.1798v4.8765c.0065.3145.0737.5687.2015.7619.1278.1934.2999.3342.5162.4227s.4489.1327.698.1327c.2687,0,.5063-.0394.7128-.1179.2064-.0787.3849-.1869.5359-.3245l-.2753-.6587c-.1116.1116-.236.2001-.3736.2654-.1376.0655-.3015.0984-.4917.0984-.2163,0-.3933-.059-.5308-.1769s-.2066-.2981-.2066-.5408v-4.955l-.7865.2163v-.0002Zm-2.5659,6.0071c.295-.1244.5243-.3032.6883-.5359.1638-.2326.2457-.5028.2457-.8111,0-.3013-.0919-.557-.2753-.7668-.1836-.2096-.5048-.3604-.9634-.4523l-1.2289-.2557c-.2688-.0524-.4523-.1392-.5505-.2605-.0982-.1212-.1475-.2539-.1475-.3981,0-.1441.0442-.2735.1327-.3884.0885-.1147.2163-.2047.3835-.2703.1672-.0654.3687-.0984.6047-.0984.2687,0,.5276.0673.7768.2015.249.1343.4292.3458.5408.6341l.6587-.4326c-.1639-.3474-.4129-.6161-.7471-.8062-.3342-.1899-.7439-.2851-1.2289-.2851-.3867,0-.7226.0673-1.0077.2015-.2851.1343-.5048.3131-.6587.5359-.154.2228-.2311.4687-.2311.7374,0,.3409.1033.626.3097.8553.2064.2295.5489.3933,1.0274.4917l1.1798.2457c.249.0525.4178.1361.5063.2506.0885.1148.1327.2409.1327.3784,0,.2163-.0982.3918-.2948.526-.1966.1343-.4687.2015-.8159.2015-.3933,0-.7293-.085-1.0077-.2557-.2786-.1703-.49-.4062-.6341-.7078l-.6686.4817c.2163.3736.526.6621.9291.8652.403.2033.8437.3048,1.3224.3048.3866,0,.7275-.0623,1.0225-.1869l-.0005.0004Zm-5.2107-4.8272v4.9158h.7865v-4.9158h-.7865Zm.821-1.1061c.1082-.1082.1621-.2506.1621-.4277s-.054-.3196-.1621-.4277c-.1082-.1082-.2506-.1621-.4277-.1621s-.3196.054-.4277.1621-.1621.2506-.1621.4277.054.3196.1621.4277c.1082.1082.2506.1621.4277.1621s.3196-.054.4277-.1621Zm-3.0133,5.9333c.295-.1244.5243-.3032.6883-.5359.1638-.2326.2457-.5028.2457-.8111,0-.3013-.0919-.557-.2753-.7668-.1836-.2096-.5048-.3604-.9634-.4523l-1.2289-.2557c-.2688-.0524-.4523-.1392-.5505-.2605-.0984-.1212-.1475-.2539-.1475-.3981,0-.1441.0442-.2735.1327-.3884.0885-.1147.2163-.2047.3835-.2703.1672-.0654.3687-.0984.6047-.0984.2687,0,.5276.0673.7768.2015.249.1343.4292.3458.5408.6341l.6587-.4326c-.1639-.3474-.4129-.6161-.7471-.8062-.3342-.1899-.7439-.2851-1.2289-.2851-.3867,0-.7226.0673-1.0077.2015-.2851.1343-.5048.3131-.6587.5359-.154.2228-.2311.4687-.2311.7374,0,.3409.1033.626.3097.8553.2064.2295.5489.3933,1.0274.4917l1.1798.2457c.249.0525.4178.1361.5063.2506.0885.1148.1327.2409.1327.3784,0,.2163-.0984.3918-.295.526-.1966.1343-.4687.2015-.8159.2015-.3933,0-.7293-.085-1.0077-.2557-.2786-.1703-.49-.4062-.6341-.7078l-.6686.4817c.2163.3736.526.6621.9291.8652.403.2033.8437.3048,1.3224.3048.3866,0,.7275-.0623,1.0225-.1869l-.0004.0004Zm-4.9844,0c.295-.1244.5243-.3032.6883-.5359.1638-.2326.2457-.5028.2457-.8111,0-.3013-.0919-.557-.2753-.7668-.1836-.2096-.5048-.3604-.9634-.4523l-1.2289-.2557c-.2688-.0524-.4523-.1392-.5505-.2605-.0984-.1212-.1475-.2539-.1475-.3981,0-.1441.0442-.2735.1327-.3884.0885-.1147.2163-.2047.3835-.2703.1672-.0654.3687-.0984.6047-.0984.2687,0,.5276.0673.7768.2015.249.1343.4292.3458.5408.6341l.6587-.4326c-.1639-.3474-.4129-.6161-.7471-.8062-.3342-.1899-.7439-.2851-1.2289-.2851-.3867,0-.7226.0673-1.0077.2015-.2851.1343-.5048.3131-.6587.5359-.154.2228-.2311.4687-.2311.7374,0,.3409.1033.626.3097.8553.2064.2295.5489.3933,1.0274.4917l1.1798.2457c.249.0525.4178.1361.5063.2506.0885.1148.1327.2409.1327.3784,0,.2163-.0984.3918-.295.526-.1966.1343-.4687.2015-.8159.2015-.3933,0-.7293-.085-1.0077-.2557-.2786-.1703-.49-.4062-.6341-.7078l-.6686.4817c.2163.3736.526.6621.9291.8652.403.2033.8437.3048,1.3224.3048.3867,0,.7275-.0623,1.0225-.1869l-.0004.0004Zm-6.7149-5.6433l1.1897,3.1953h-2.3694l1.1798-3.1953Zm.4817-.7571h-.934l-2.5267,6.4888h.8259l.6883-1.7992h2.9396l.6883,1.7992h.8356l-2.5168-6.4888h-.0002Z"/></svg>