<svg width="36" height="36" viewBox="0 0 36 36" fill="none" xmlns="http://www.w3.org/2000/svg">
<path fill-rule="evenodd" clip-rule="evenodd" d="M32.9677 9.85938V13.1021L25.564 20.0611L26.9701 21.3811L30.9637 17.6266V20.8693L28.4384 23.2416H25.5018L23.8374 21.6776L22.1108 20.0563L32.9677 9.8546V9.85938ZM18.4424 31.0232H6.68633L4.24711 28.7275H12.55L10.7469 27.0344H2.43922L0 24.7386H8.30291L4.15624 20.8407V17.5979L18.4424 31.0184V31.0232ZM2.18095 9.85938L20.456 27.0296H17.0028L2.18095 13.1021V9.85938ZM26.3436 27.0344C27.0945 27.0917 27.8071 27.2831 28.4576 27.5796C29.0554 27.857 29.6293 28.2874 30.0885 28.7275H25.0426L27.4819 31.0232H36C35.2778 30.0332 34.2973 29.2583 33.1256 28.7466C32.3842 27.5413 31.265 26.4509 29.9737 25.7621C28.7732 25.1165 27.3862 24.7482 25.9035 24.7434H24.2774L2.18095 3.97656V7.21929L23.273 27.0344H26.3436ZM32.9677 3.97656V7.21929L20.7047 18.741L18.9781 17.1149L32.9677 3.97656Z" fill="black"/>
</svg>
