<?xml version="1.0" encoding="UTF-8"?>
<svg id="Calque_1" xmlns="http://www.w3.org/2000/svg" viewBox="0 0 1400 400">
  <defs>
    <style>
      .cls-1 {
        fill: #002f9b;
      }

      .cls-2 {
        fill: #ffa200;
      }
    </style>
  </defs>
  <path class="cls-2" d="M1099.39,339.73V58.37c0-1.04,1.12-1.69,2.02-1.18l248.67,140.69c.92.52.92,1.84,0,2.36l-248.67,140.68c-.9.51-2.02-.14-2.02-1.18Z"/>
  <g>
    <path class="cls-1" d="M862.87,98.59c-5.18,0-9.27,1.46-12.27,4.37-3,2.92-4.5,6.72-4.5,11.42,0,5.02,1.46,8.91,4.37,11.66,2.91,2.76,7.04,4.13,12.39,4.13s9.27-1.46,12.27-4.37c2.99-2.91,4.49-6.72,4.49-11.42,0-5.02-1.46-8.91-4.37-11.66-2.92-2.75-7.05-4.13-12.39-4.13Z"/>
    <path class="cls-1" d="M151.52,166.34c-2.19-2.51-4.75-4.91-7.77-7.15-4.7-3.48-10-6.23-15.91-8.26-5.91-2.02-12.02-3.04-18.34-3.04-11.5,0-21.78,2.88-30.86,8.63-9.07,5.75-16.24,13.61-21.5,23.56-5.27,9.96-7.9,21.34-7.9,34.13s2.67,24.18,8.02,34.14c5.34,9.96,12.59,17.82,21.74,23.56,9.15,5.75,19.56,8.63,31.22,8.63,5.83,0,11.54-.97,17.13-2.92s10.52-4.53,14.82-7.77c3.8-2.86,6.89-5.96,9.35-9.27v17.54h25.02V98.33h-25.02v68.01ZM147.51,237.18c-3.32,6.72-7.9,12.02-13.73,15.91s-12.55,5.83-20.16,5.83-14.34-1.94-20.16-5.83c-5.83-3.89-10.41-9.19-13.73-15.91-3.32-6.72-4.98-14.37-4.98-22.96s1.66-16.23,4.98-22.96c3.32-6.72,7.9-12.03,13.73-15.91,5.83-3.89,12.55-5.83,20.16-5.83s14.33,1.94,20.16,5.83,10.41,9.19,13.73,15.91c3.32,6.72,4.98,14.37,4.98,22.96s-1.66,16.24-4.98,22.96Z"/>
    <path class="cls-1" d="M270.56,242.65c-1.13,3.4-2.31,6.8-3.52,10.2,0,0,0,.02,0,.02-.12-.37-.23-.74-.36-1.12-1.13-3.32-2.1-5.79-2.91-7.41l-39.84-93.78h-29.16l59.17,133.7-21.51,49.73h26.96l21.62-55.88,52.48-127.55h-29.64l-33.29,92.08Z"/>
    <path class="cls-1" d="M443.3,153.6c-6.48-3.8-14.58-5.71-24.29-5.71-6.8,0-13.45,1.5-19.92,4.5-6.48,3-12.07,6.88-16.76,11.66-2,2.03-3.66,4.16-5.1,6.36v-19.84h-25.02v127.55h25.02v-77.26c0-4.21.85-8.14,2.55-11.78s4.05-6.84,7.05-9.6c2.99-2.75,6.52-4.9,10.57-6.44,4.05-1.54,8.5-2.31,13.36-2.31,5.99-.32,11.01.61,15.06,2.8,4.05,2.19,7.04,5.67,8.99,10.45,1.94,4.78,2.92,10.81,2.92,18.1v76.04h25.02v-77.74c0-11.82-1.62-21.62-4.86-29.4-3.24-7.77-8.1-13.56-14.58-17.37Z"/>
    <path class="cls-1" d="M590.28,170.04c-2.58-4.14-5.76-7.85-9.59-11.09-4.13-3.48-8.95-6.2-14.46-8.14-5.51-1.94-11.58-2.92-18.22-2.92-11.18,0-21.26,2.84-30.25,8.51-8.99,5.67-16.12,13.48-21.38,23.45-5.26,9.96-7.9,21.34-7.9,34.13s2.59,23.97,7.77,34.01c5.18,10.05,12.11,17.98,20.77,23.81,8.66,5.83,18.26,8.75,28.79,8.75,6.15,0,12.03-.97,17.62-2.92s10.69-4.53,15.31-7.77c4.61-3.24,8.42-6.92,11.42-11.05.04-.06.08-.12.12-.18v19.49h25.27v-127.55h-25.27v19.47ZM586.27,236.45c-3.32,6.56-7.9,11.7-13.73,15.43-5.83,3.73-12.56,5.59-20.17,5.59s-14.05-1.86-19.8-5.59c-5.75-3.72-10.29-8.87-13.61-15.43-3.32-6.56-4.98-14.05-4.98-22.47s1.66-15.63,4.98-22.11c3.32-6.47,7.85-11.58,13.61-15.31,5.75-3.72,12.35-5.59,19.8-5.59s14.34,1.86,20.17,5.59c5.83,3.73,10.4,8.83,13.73,15.31,3.32,6.48,4.98,13.85,4.98,22.11s-1.66,15.91-4.98,22.47Z"/>
    <path class="cls-1" d="M714.67,147.89c-5.99,0-11.78,1.46-17.37,4.37-5.59,2.92-10.53,6.88-14.82,11.91-2.77,3.24-4.96,6.74-6.68,10.45v-24.06h-25.26v127.55h25.26v-70.46c0-4.7.89-9.03,2.67-13,1.78-3.97,4.17-7.45,7.17-10.45,3-2.99,6.48-5.34,10.45-7.04,3.97-1.7,8.14-2.55,12.51-2.55,2.27,0,4.58.29,6.93.85,2.34.57,4.49,1.26,6.44,2.07l6.56-27.21c-1.46-.65-3.45-1.21-5.95-1.7-2.51-.49-5.15-.73-7.9-.73Z"/>
    <polygon class="cls-1" points="794.11 118.01 769.09 118.01 769.09 150.57 742.61 150.57 742.61 174.86 769.09 174.86 769.09 278.12 794.11 278.12 794.11 174.86 823.76 174.86 823.76 150.57 794.11 150.57 794.11 118.01"/>
    <rect class="cls-1" x="850.72" y="150.57" width="25.02" height="127.55"/>
    <path class="cls-1" d="M1027.83,180.08c-5.67-9.96-13.4-17.81-23.2-23.56-9.8-5.75-20.86-8.63-33.16-8.63s-23.61,2.88-33.41,8.63c-9.8,5.75-17.54,13.61-23.2,23.56-5.67,9.96-8.5,21.34-8.5,34.13s2.83,24.18,8.5,34.14c5.67,9.96,13.4,17.82,23.2,23.56,9.8,5.75,20.93,8.63,33.41,8.63s23.36-2.88,33.16-8.63c9.8-5.75,17.53-13.61,23.2-23.56,5.67-9.96,8.5-21.34,8.5-34.14s-2.83-24.17-8.5-34.13ZM1005.96,236.45c-3.4,6.56-8.1,11.75-14.09,15.55-5.99,3.81-12.8,5.71-20.41,5.71s-14.46-1.9-20.53-5.71c-6.07-3.8-10.81-8.99-14.21-15.55s-5.02-13.97-4.86-22.23c-.16-8.26,1.46-15.67,4.86-22.23,3.4-6.56,8.14-11.74,14.21-15.55,6.07-3.8,12.92-5.71,20.53-5.71s14.41,1.86,20.41,5.59c5.99,3.73,10.69,8.87,14.09,15.43,3.4,6.56,5.02,14.05,4.86,22.47.16,8.26-1.46,15.67-4.86,22.23Z"/>
  </g>
  <path class="cls-1" d="M1323.64,230.03c-4.84,0-9.07,2.54-11.49,6.35l-112.44-40.89,67.93-95.1c1.65.71,3.46,1.1,5.36,1.1,7.53,0,13.63-6.1,13.63-13.63s-6.1-13.63-13.63-13.63-13.63,6.1-13.63,13.63c0,3.51,1.36,6.68,3.54,9.1l-68.62,96.06-114.88-69.63c.47-1.38.78-2.83.78-4.37,0-7.53-6.1-13.63-13.63-13.63s-13.63,6.1-13.63,13.63,6.1,13.63,13.63,13.63c3.88,0,7.37-1.64,9.85-4.25l113.6,68.85-114.01,91.13c-2.45-2.36-5.76-3.82-9.43-3.82-7.53,0-13.63,6.1-13.63,13.63s6.1,13.63,13.63,13.63,13.63-6.1,13.63-13.63c0-1.74-.36-3.4-.95-4.93l114.07-91.18,27.06,115.02c-4.57,2.2-7.75,6.84-7.75,12.25,0,7.53,6.1,13.63,13.63,13.63s13.63-6.1,13.63-13.63-6.1-13.63-13.63-13.63c-.07,0-.13.02-.2.02l-26.88-114.23,111,40.36c-.08.59-.18,1.17-.18,1.78,0,7.53,6.1,13.63,13.63,13.63s13.63-6.1,13.63-13.63-6.1-13.63-13.63-13.63Z"/>
</svg>